# xmcd
#
# Track frame offsets: 
#        150
#        16693
#        33801
#        47255
#        67730
#        84214
#        95281
#        113062
#        142462
#        155760
#
# Disc length: 2311 seconds
#
# Revision: 0
# Processed by: cddbd v1.5.2PL0 Copyright (c) Steve Scherf et al.
# Submitted via: ExactAudioCopy v0.99pb5
#
DISCID=6d09050a
DTITLE=Jon Amor Blues Group - Jon Amor Blues Group
DYEAR=2011
DGENRE=Blues  Rock
TTITLE0=Holy Water
TTITLE1=Juggernaut
TTITLE2=Make It Your Trouble
TTITLE3=Repeat Offender
TTITLE4=Sweetheart
TTITLE5=Angel In A Black Dress
TTITLE6=The Underdogs
TTITLE7=When The Time Comes
TTITLE8=She Thought I Was An Eagle
TTITLE9=You Know It's Only Love
EXTD=
EXTT0=
EXTT1=
EXTT2=
EXTT3=
EXTT4=
EXTT5=
EXTT6=
EXTT7=
EXTT8=
EXTT9=
PLAYORDER=
